<svg width="24" height="24" viewBox="0 0 24 24" fill="none" xmlns="http://www.w3.org/2000/svg">
<g id="Frame" clip-path="url(#clip0_1_7824)">
<path id="Vector" d="M14 0H10C4.47715 0 0 4.47715 0 10V14C0 19.5228 4.47715 24 10 24H14C19.5228 24 24 19.5228 24 14V10C24 4.47715 19.5228 0 14 0Z" fill="#1E4FAD"/>
<path id="Vector_2" fill-rule="evenodd" clip-rule="evenodd" d="M13.9038 7.52928C14.319 7.51532 14.7343 7.52606 15.1506 7.52498C15.201 7.52498 15.2524 7.52498 15.3223 7.52498V5.26885C15.1002 5.24524 14.8679 5.21197 14.6356 5.20016C14.2101 5.18084 13.7835 5.1583 13.3569 5.16903C12.7063 5.18299 12.0895 5.34935 11.5519 5.75185C10.9352 6.21553 10.596 6.86596 10.4675 7.63553C10.414 7.95324 10.4007 8.2806 10.3925 8.60367C10.3801 9.11028 10.3894 9.61582 10.3904 10.1224V10.3124H8.32227V12.8326H10.377V19.1663H12.8882V12.8433H14.9368C15.0416 12.0061 15.1444 11.1764 15.2524 10.3124C15.0879 10.3124 14.9399 10.3124 14.7919 10.3124C14.209 10.3146 12.8718 10.3124 12.8718 10.3124C12.8718 10.3124 12.8779 9.06306 12.8913 8.5221C12.9118 7.77721 13.3343 7.55074 13.9038 7.52928Z" fill="white"/>
</g>
<defs>
<clipPath id="clip0_1_7824">
<rect width="24" height="24" fill="white"/>
</clipPath>
</defs>
</svg>
