<svg width="24" height="24" viewBox="0 0 24 24" fill="none" xmlns="http://www.w3.org/2000/svg">
<g id="Frame" clip-path="url(#clip0_1_7831)">
<path id="Vector" d="M14 0H10C4.47715 0 0 4.47715 0 10V14C0 19.5228 4.47715 24 10 24H14C19.5228 24 24 19.5228 24 14V10C24 4.47715 19.5228 0 14 0Z" fill="url(#paint0_linear_1_7831)"/>
<path id="Vector_2" d="M18.1679 8.80675C18.084 7.98411 17.7686 7.25607 17.1568 6.67257C16.5142 6.05826 15.7271 5.78723 14.8647 5.74153C13.3957 5.66182 9.90764 5.6108 8.68299 5.81062C7.28309 6.03913 6.36646 6.85645 5.97878 8.23919C5.68138 9.30309 5.7398 14.2081 5.91399 15.2592C6.15085 16.6972 7.00056 17.6198 8.42489 17.9864C9.41056 18.2415 14.2561 18.2086 15.3437 18.0321C16.7818 17.7994 17.7069 16.9544 18.0819 15.5313C18.3676 14.4398 18.2678 9.79199 18.1679 8.80675ZM17.0176 15.0562C16.8509 16.1488 16.1254 16.8258 15.0282 16.9459C14.0203 17.0565 9.51784 17.117 8.58315 16.8556C7.68883 16.6058 7.17688 15.9904 7.02818 15.0892C6.88691 14.2283 6.8508 9.9291 7.02605 8.77805C7.19068 7.69502 7.91507 7.01906 9.00695 6.89683C10.1137 6.77248 14.0989 6.75866 15.1589 6.92128C16.2486 7.08814 16.9231 7.81512 17.0431 8.91515C17.1546 9.94079 17.1865 13.953 17.0176 15.0562ZM12.0213 8.71534C10.2507 8.71428 8.81576 10.1491 8.8147 11.9208C8.81364 13.6915 10.2475 15.1285 12.0181 15.1295C13.7876 15.1306 15.2237 13.6958 15.2247 11.924C15.2247 10.1523 13.7908 8.7164 12.0213 8.71534ZM11.999 13.9934C10.854 13.9827 9.93526 13.0464 9.94482 11.9007C9.95544 10.7549 10.8912 9.83557 12.0362 9.84513C13.1812 9.85576 14.0999 10.7921 14.0904 11.9379C14.0797 13.0836 13.1429 14.004 11.999 13.9934ZM16.101 8.59418C16.0999 9.00868 15.7632 9.34454 15.349 9.34348C14.9348 9.34241 14.5991 9.0055 14.6002 8.59099C14.6012 8.17649 14.9379 7.84063 15.3522 7.84169C15.7664 7.84276 16.1021 8.17967 16.101 8.59418Z" fill="white"/>
</g>
<defs>
<linearGradient id="paint0_linear_1_7831" x1="28.465" y1="-8.28154" x2="1.43711" y2="25.011" gradientUnits="userSpaceOnUse">
<stop offset="0.0108" stop-color="#3542E0"/>
<stop offset="0.1748" stop-color="#3841DF"/>
<stop offset="0.2744" stop-color="#403FDA"/>
<stop offset="0.357" stop-color="#4E3CD2"/>
<stop offset="0.4301" stop-color="#6337C7"/>
<stop offset="0.4971" stop-color="#7D31B9"/>
<stop offset="0.5595" stop-color="#9E2AA8"/>
<stop offset="0.6173" stop-color="#C32193"/>
<stop offset="0.6236" stop-color="#C82091"/>
<stop offset="0.7612" stop-color="#F62B37"/>
<stop offset="1" stop-color="#FFC658"/>
</linearGradient>
<clipPath id="clip0_1_7831">
<rect width="24" height="24" fill="white"/>
</clipPath>
</defs>
</svg>
