<svg width="24" height="25" viewBox="0 0 24 25" fill="none" xmlns="http://www.w3.org/2000/svg">
<g id="li:mail">
<path id="Vector (Stroke)" fill-rule="evenodd" clip-rule="evenodd" d="M4 5.20833C3.45228 5.20833 3 5.67946 3 6.25V18.75C3 19.3205 3.45228 19.7917 4 19.7917H20C20.5477 19.7917 21 19.3205 21 18.75V6.25C21 5.67946 20.5477 5.20833 20 5.20833H4ZM1 6.25C1 4.52887 2.34772 3.125 4 3.125H20C21.6523 3.125 23 4.52887 23 6.25V18.75C23 20.4711 21.6523 21.875 20 21.875H4C2.34772 21.875 1 20.4711 1 18.75V6.25Z" fill="white"/>
<path id="Vector (Stroke)_2" fill-rule="evenodd" clip-rule="evenodd" d="M1.18085 5.65265C1.49757 5.18135 2.1211 5.06673 2.57355 5.39664L12.0001 12.2702L21.4266 5.39664C21.8791 5.06673 22.5026 5.18135 22.8193 5.65265C23.136 6.12395 23.026 6.77346 22.5735 7.10337L12.5735 14.395C12.2292 14.6461 11.7709 14.6461 11.4266 14.395L1.42662 7.10337C0.974174 6.77346 0.864139 6.12395 1.18085 5.65265Z" fill="white"/>
</g>
</svg>
