<svg width="24" height="24" viewBox="0 0 24 24" fill="none" xmlns="http://www.w3.org/2000/svg">
<g id="li:phone">
<path id="Vector" d="M19.8895 22.93C19.7995 22.93 19.7095 22.93 19.6095 22.92C16.3795 22.57 13.2395 21.45 10.5295 19.69C8.00954 18.09 5.82954 15.91 4.22954 13.39C2.46954 10.67 1.34954 7.52 1.00954 4.29C0.969539 3.86 1.01954 3.45 1.14954 3.05C1.27954 2.65 1.49954 2.29 1.77954 1.98C2.05954 1.67 2.39954 1.43 2.77954 1.26C3.16954 1.09 3.57954 1 3.99954 1H6.99954C7.69954 1 8.41954 1.25 8.97954 1.73C9.52954 2.2 9.88954 2.86 9.98954 3.58C10.1095 4.47 10.3295 5.35 10.6395 6.18C10.8395 6.72 10.8895 7.3 10.7595 7.86C10.6395 8.42 10.3595 8.94 9.95954 9.34L9.23954 10.06C10.4195 11.9 11.9795 13.47 13.8295 14.65L14.5495 13.93C14.9595 13.52 15.4795 13.24 16.0395 13.13C16.5995 13.01 17.1795 13.05 17.7195 13.25C18.5495 13.56 19.4295 13.78 20.3095 13.9C21.0495 14 21.7095 14.37 22.1895 14.93C22.6595 15.49 22.9195 16.2 22.8995 16.93V19.92C22.8995 20.34 22.8195 20.74 22.6495 21.13C22.4795 21.51 22.2295 21.86 21.9295 22.14C21.6195 22.42 21.2595 22.64 20.8595 22.77C20.5395 22.88 20.2195 22.93 19.8895 22.93ZM7.01954 3H7.00954H3.99954C3.85954 3 3.72954 3.03 3.59954 3.09C3.46954 3.14 3.34954 3.22 3.25954 3.32C3.15954 3.42 3.08954 3.54 3.04954 3.68C3.00954 3.81 2.98954 3.95 2.99954 4.09C3.30954 7 4.31954 9.84 5.90954 12.31C7.35954 14.59 9.32954 16.56 11.6095 18.01C14.0695 19.61 16.9095 20.61 19.8095 20.93C19.9295 20.94 20.0695 20.92 20.1995 20.88C20.3295 20.84 20.4495 20.76 20.5595 20.67C20.6695 20.58 20.7495 20.46 20.7995 20.33C20.8595 20.2 20.8795 20.06 20.8795 19.92V16.92C20.8795 16.91 20.8795 16.9 20.8795 16.9C20.8895 16.65 20.7995 16.42 20.6395 16.23C20.4795 16.04 20.2595 15.92 20.0195 15.89C18.9995 15.76 17.9795 15.5 16.9995 15.14C16.8195 15.07 16.6195 15.06 16.4395 15.1C16.2495 15.14 16.0795 15.23 15.9395 15.37L14.6795 16.64C14.3595 16.96 13.8695 17.02 13.4795 16.8C10.8195 15.29 8.61954 13.08 7.09954 10.43C6.88954 10.01 6.94954 9.52 7.26954 9.2L8.53954 7.93C8.66954 7.8 8.75954 7.63 8.79954 7.44C8.83954 7.25 8.82954 7.06 8.75954 6.88C8.38954 5.9 8.13954 4.88 7.99954 3.85C7.96954 3.62 7.84954 3.4 7.66954 3.24C7.48954 3.09 7.25954 3 7.01954 3Z" fill="white"/>
</g>
</svg>
