<svg width="24" height="24" viewBox="0 0 24 24" fill="none" xmlns="http://www.w3.org/2000/svg">
<g id="Frame">
<g clip-path="url(#clip0_1_7838)">
<path id="Vector" d="M24 0H0V24H24V0Z" fill="#FFEC00"/>
<path id="Vector_2" d="M11.9425 17.8875C13.0601 17.8334 13.8105 16.9362 14.2858 16.7252C14.7772 16.5078 15.9333 16.7443 16.127 16.7443C16.3208 16.7443 16.263 16.5714 16.4182 16.1706C16.5734 15.7697 16.7329 15.9023 17.5079 15.7051C18.2829 15.5089 18.2016 15.0995 18.1759 14.9967C18.1502 14.8938 17.6846 15.1886 16.6644 14.4209C15.8573 13.8143 15.4237 13.1271 15.276 12.4866C15.2888 11.9649 15.9204 11.8037 16.324 11.6467C16.7629 11.476 17.0476 11.2204 16.7757 10.9468C16.5038 10.6743 16.233 10.7591 15.9011 10.9299C15.6239 11.072 15.3124 11.0041 15.216 10.9776C15.216 10.4368 15.216 9.75702 15.216 9.06985C15.216 7.31163 13.7773 5.88745 12.0025 5.88745H11.8805C10.1056 5.88745 8.66691 7.31269 8.66691 9.06985C8.66691 9.75702 8.66691 10.4378 8.66691 10.9776C8.57164 11.0041 8.25906 11.073 7.98181 10.9299C7.64996 10.7591 7.37913 10.6743 7.10723 10.9468C6.8364 11.2204 7.12008 11.476 7.55897 11.6467C7.96254 11.8037 8.59304 11.9649 8.60696 12.4866C8.45924 13.1271 8.02569 13.8132 7.21856 14.4209C6.19733 15.1886 5.73275 14.8949 5.70706 14.9967C5.68136 15.0995 5.59894 15.5089 6.37503 15.7051C7.15005 15.9012 7.30955 15.7687 7.46477 16.1706C7.61999 16.5714 7.56218 16.7443 7.75594 16.7443C7.94969 16.7443 9.1058 16.5078 9.59715 16.7252C10.0756 16.9362 10.825 17.8334 11.9425 17.8875Z" fill="white"/>
</g>
</g>
<defs>
<clipPath id="clip0_1_7838">
<rect width="24" height="24" rx="10" fill="white"/>
</clipPath>
</defs>
</svg>
