<svg width="24" height="24" viewBox="0 0 24 24" fill="none" xmlns="http://www.w3.org/2000/svg">
<g id="Frame" clip-path="url(#clip0_1_7827)">
<path id="Vector" d="M14 0H10C4.47715 0 0 4.47715 0 10V14C0 19.5228 4.47715 24 10 24H14C19.5228 24 24 19.5228 24 14V10C24 4.47715 19.5228 0 14 0Z" fill="#0B8F21"/>
<path id="Vector_2" fill-rule="evenodd" clip-rule="evenodd" d="M5.66504 18.0852C5.73837 17.8051 5.80213 17.5609 5.86802 17.3157C6.0827 16.5345 6.30375 15.7555 6.50779 14.9733C6.53755 14.856 6.5248 14.7017 6.46954 14.597C4.4737 10.816 6.53224 6.24016 10.7163 5.26241C14.5166 4.37662 17.9333 6.92722 18.5572 10.3393C19.2055 13.8973 16.8653 17.2787 13.3157 17.8971C11.9044 18.1391 10.5558 17.933 9.26774 17.3104C9.15296 17.2533 8.99143 17.2385 8.86921 17.2671C7.15288 17.6962 6.01043 18.0176 5.66504 18.0852ZM7.17413 16.6043C7.82028 16.4373 8.41436 16.2893 9.00418 16.1244C9.17103 16.08 9.29962 16.1043 9.44734 16.1889C10.5632 16.8284 11.7588 17.0673 13.0373 16.8633C15.98 16.394 17.995 13.6552 17.5454 10.741C17.0778 7.71894 14.2297 5.69156 11.2189 6.24016C7.57691 6.90503 5.64378 10.9439 7.4547 14.1414C7.65556 14.4955 7.71082 14.7883 7.57585 15.1646C7.41325 15.617 7.31442 16.0895 7.17413 16.6043Z" fill="white"/>
<path id="Vector_3" fill-rule="evenodd" clip-rule="evenodd" d="M13.8835 14.6306C12.6291 14.5867 10.631 13.6037 9.26278 11.247C8.77721 10.4092 8.84673 9.45336 9.55875 8.79732C9.7989 8.57481 10.1012 8.62913 10.3835 8.67614C10.453 8.68659 10.5257 8.7921 10.5604 8.8694C10.7426 9.28099 10.9227 9.69258 11.0807 10.1136C11.165 10.3361 11.0102 10.545 10.6858 10.9159C10.5825 11.0329 10.5604 11.1415 10.6415 11.2773C11.1682 12.1611 11.9034 12.8004 12.8713 13.1754C13.0135 13.2297 13.1199 13.1963 13.2094 13.0856C13.7224 12.4651 13.775 12.2833 14.0447 12.4107C15.3423 13.026 15.4434 13.0511 15.4498 13.1974C15.494 14.2838 14.4913 14.6755 13.8835 14.6306Z" fill="white"/>
</g>
<defs>
<clipPath id="clip0_1_7827">
<rect width="24" height="24" fill="white"/>
</clipPath>
</defs>
</svg>
