<svg width="24" height="24" viewBox="0 0 24 24" fill="none" xmlns="http://www.w3.org/2000/svg">
<path d="M9 22H15C20 22 22 20 22 15V9C22 4 20 2 15 2H9C4 2 2 4 2 9V15C2 20 4 22 9 22Z" stroke="#393939" stroke-width="1.5" stroke-linecap="round" stroke-linejoin="round"/>
<path d="M12.372 17.9444C12.168 18.0185 11.832 18.0185 11.628 17.9444C9.888 17.3326 6 14.7803 6 10.4545C6 8.54494 7.494 7 9.336 7C10.428 7 11.394 7.54382 12 8.38427C12.606 7.54382 13.578 7 14.664 7C16.506 7 18 8.54494 18 10.4545C18 14.7803 14.112 17.3326 12.372 17.9444Z" stroke="#393939" stroke-width="1.5" stroke-linecap="round" stroke-linejoin="round"/>
</svg>
